<svg id="Layer_1" enable-background="new 0 0 512 512" height="512" viewBox="0 0 512 512" width="512" xmlns="http://www.w3.org/2000/svg"><g fill="#f2f2f2"><path d="m496 400v96h-112v-128h80z"/><path d="m496 224v96h-112v-128h80z"/><path d="m496 48v96h-112v-128h80z"/></g><path d="m496 48v68h-60c-13.255 0-24-10.745-24-24v-76h52z" fill="#f9f9f9"/><path d="m496 224v68h-60c-13.255 0-24-10.745-24-24v-76h52z" fill="#f9f9f9"/><path d="m496 400v68h-60c-13.255 0-24-10.745-24-24v-76h52z" fill="#f9f9f9"/><path d="m160 192c0 24.327 1.34 33.436-5.56 46.44-8.05 15.2-24.04 25.56-42.44 25.56-26.51 0-48-21.49-48-48v-24c0-42.742 51.831-64.084 81.94-33.94 8.69 8.68 14.06 20.68 14.06 33.94z" fill="#ffdfba"/><path d="m160 192c0 24.327 1.34 33.436-5.56 46.44-31.427 16.676-70.44-5.896-70.44-42.44 0-24.327-1.34-33.436 5.56-46.44 31.941-16.949 70.44 6.395 70.44 42.44z" fill="#ffebd2"/><path d="m208 352c0 13.25-42.98 24-96 24s-96-10.75-96-24c1.2-4.393.238-.87 5.06-18.54 11.161-40.95 48.366-69.46 90.94-69.46 42.54 0 79.763 28.469 90.94 69.46 5.087 18.62 3.667 13.437 5.06 18.54z" fill="#ea8692"/><path d="m206.83 347.7c-37.768 6.586-92.059 5.757-125.944-3.579-14.996-4.132-23.945-19.57-19.826-34.661 4.39-16.1 12.8-30.27 23.97-41.53 50.745-15.123 103.991 14.483 117.91 65.53z" fill="#fe929f"/><path d="m218.377 329.25c-8.104-29.714-28.93-56.198-58.843-70.448 10.228-11.348 16.466-26.359 16.466-42.802v-24c0-35.29-28.71-64-64-64s-64 28.71-64 64v24c0 16.453 6.245 31.473 16.484 42.823-28.237 13.54-50.246 38.832-58.86 70.425-5.452 19.978-5.624 19.88-5.624 22.752 0 22.43 30.285 30.002 40.236 32.491 40.048 10.013 103.446 10.021 143.527 0 9.952-2.489 40.237-10.061 40.237-32.491 0-2.859-.086-2.459-5.623-22.75zm-138.377-113.25v-24c0-17.645 14.355-32 32-32s32 14.355 32 32v24c0 17.645-14.355 32-32 32s-32-14.355-32-32zm-46.499 132.646 2.995-10.977c14.485-53.131 78.737-75.433 123.01-41.604 22.443 17.147 26.775 37.121 30.993 52.582-30.677 15.069-126.214 15.122-156.998-.001z"/><path d="m475.313 356.686c-3-3-7.07-4.686-11.313-4.686h-80c-8.837 0-16 7.164-16 16v128c0 8.836 7.163 16 16 16h112c8.837 0 16-7.164 16-16v-96c0-4.244-1.686-8.313-4.687-11.314zm4.687 123.314h-80v-96h57.372l22.628 22.627z"/><path d="m475.313 180.686c-3-3-7.07-4.686-11.313-4.686h-80c-8.837 0-16 7.164-16 16v128c0 8.836 7.163 16 16 16h112c8.837 0 16-7.164 16-16v-96c0-4.244-1.686-8.313-4.687-11.314zm4.687 123.314h-80v-96h57.372l22.628 22.627z"/><path d="m507.313 36.686-32-32c-3-3-7.07-4.686-11.313-4.686h-80c-8.837 0-16 7.164-16 16v128c0 8.836 7.163 16 16 16h112c8.837 0 16-7.164 16-16v-96c0-4.244-1.686-8.313-4.687-11.314zm-27.313 91.314h-80v-96h57.372l22.628 22.627z"/><path d="m336 88c8.837 0 16-7.164 16-16s-7.163-16-16-16h-64c-8.837 0-16 7.164-16 16v168h-48c-8.837 0-16 7.164-16 16s7.163 16 16 16h48v160c0 8.836 7.163 16 16 16h64c8.837 0 16-7.164 16-16s-7.163-16-16-16h-48v-144h48c8.837 0 16-7.164 16-16s-7.163-16-16-16h-48v-152z"/></svg>